<svg width="27" height="30" viewBox="0 0 27 30" fill="none" xmlns="http://www.w3.org/2000/svg">
<path d="M20.246 12.3019C19.6747 11.7516 18.7438 11.7473 18.167 12.2925C17.8867 12.5574 17.7297 12.9188 17.7315 13.2953V25.1652C17.7311 25.538 17.8867 25.8955 18.1637 26.1585L18.1669 26.1554C18.7402 26.7039 19.6709 26.7054 20.2459 26.1586C20.5235 25.8946 20.6791 25.5359 20.6782 25.162V13.2921C20.6777 12.9204 20.5222 12.5642 20.246 12.3019ZM19.6632 25.1652C19.6595 25.4153 19.444 25.6152 19.1818 25.6117C19.0575 25.61 18.9388 25.5619 18.8512 25.4775C18.7636 25.3948 18.7131 25.2828 18.7104 25.1652L18.7137 13.2953C18.7174 13.0451 18.9329 12.8452 19.1951 12.8487C19.3194 12.8504 19.4381 12.8986 19.5257 12.9829C19.6121 13.0661 19.6615 13.1781 19.6632 13.2953V25.1652Z" fill="#F80404"/>
<path d="M14.8437 12.3019C14.2738 11.755 13.3472 11.7524 12.7739 12.2961C12.7719 12.2981 12.7699 12.2999 12.7679 12.3019C12.4917 12.5641 12.3362 12.9204 12.3357 13.2921V25.162C12.3362 25.5337 12.4917 25.89 12.7679 26.1522L12.7646 26.1553C13.3378 26.7039 14.2686 26.7053 14.8436 26.1585C15.1212 25.8946 15.2768 25.5359 15.2759 25.162V13.2921C15.2754 12.9204 15.1199 12.5641 14.8437 12.3019ZM14.2576 25.1651C14.2576 25.4152 14.0451 25.6181 13.7829 25.6181C13.5207 25.6181 13.3081 25.4152 13.3081 25.1651L13.3278 13.2952C13.3295 13.1781 13.3788 13.0661 13.4653 12.9828C13.6493 12.8178 13.9361 12.8178 14.1201 12.9828C14.2066 13.0661 14.2559 13.1781 14.2576 13.2952V25.1651Z" fill="#F80404"/>
<path d="M26.1033 4.88622L26.0738 4.8581C25.7065 4.50732 25.2085 4.30959 24.6888 4.30834H19.8038V2.39041C19.802 1.4958 19.0422 0.770952 18.1045 0.769234H9.49993C8.56221 0.770952 7.80244 1.4958 7.80064 2.39041V4.30834H2.91557C2.39588 4.30959 1.89788 4.50732 1.5306 4.8581C1.16291 5.2085 0.955655 5.68361 0.954346 6.17941V7.70063C0.955492 8.18277 1.15129 8.64593 1.50113 8.99383L1.5306 9.02194C1.81807 9.29597 2.18756 9.47823 2.58816 9.54359V25.9615C2.59356 28.0986 4.40811 29.8297 6.64813 29.8349H20.9563C23.1963 29.8297 25.0108 28.0986 25.0162 25.9615V9.54672C25.4168 9.48135 25.7863 9.29909 26.0738 9.02507C26.4415 8.67467 26.6487 8.19956 26.65 7.70376V6.17941C26.6489 5.69728 26.4531 5.23411 26.1033 4.88622ZM8.79926 2.39041C8.80106 2.02198 9.11374 1.72367 9.49993 1.72195H18.1045C18.4906 1.72367 18.8033 2.02198 18.8051 2.39041V4.30834H8.79926V2.39041ZM20.9595 28.8853H6.64813C4.95784 28.8801 3.58891 27.5741 3.58351 25.9615V9.57483H24.0209L24.0242 25.9615C24.0188 27.5741 22.6498 28.8801 20.9595 28.8853ZM25.3797 8.35036C25.1995 8.52372 24.9545 8.62149 24.6986 8.62211H2.91557C2.6597 8.62149 2.41471 8.52372 2.23455 8.35036L2.2149 8.33161C2.04956 8.16145 1.95624 7.93889 1.95297 7.70688V6.17941C1.95485 5.93616 2.05586 5.70321 2.23455 5.52969C2.41471 5.35633 2.6597 5.25856 2.91557 5.25793H24.6888C24.9447 5.25856 25.1897 5.35633 25.3698 5.52969L25.3895 5.54843C25.5565 5.71758 25.6501 5.94084 25.6514 6.17316L25.6612 7.70063C25.6594 7.94389 25.5584 8.17684 25.3797 8.35036Z" fill="#F80404"/>
<path d="M9.44132 12.3019C8.87145 11.755 7.94478 11.7524 7.37155 12.2961C7.36951 12.2981 7.36754 12.2999 7.3655 12.3019C7.08613 12.5638 6.92815 12.9215 6.92676 13.2952V25.1651C6.92725 25.5368 7.08277 25.8931 7.35895 26.1553H7.36222C7.93209 26.7022 8.85876 26.7048 9.43199 26.1611C9.43404 26.1591 9.436 26.1573 9.43805 26.1553C9.71627 25.8929 9.87302 25.5353 9.87351 25.162V13.2921C9.87302 12.9204 9.7175 12.5641 9.44132 12.3019ZM8.83887 25.1651C8.83887 25.4152 8.6263 25.6181 8.36412 25.6181C8.10194 25.6181 7.88936 25.4152 7.88936 25.1651L7.90901 13.2952C7.91073 13.1781 7.96009 13.0661 8.04652 12.9828C8.23053 12.8178 8.51735 12.8178 8.70136 12.9828C8.7878 13.0661 8.83715 13.1781 8.83887 13.2952V25.1651Z" fill="#F80404"/>
</svg>
