<svg width="14" height="8" viewBox="0 0 14 8" fill="none" xmlns="http://www.w3.org/2000/svg">
<path d="M5.97644 7.44136L0.240024 1.64121C0.10724 1.50706 0.0346652 1.32856 0.0357125 1.13866C0.0367598 0.94876 0.111299 0.771069 0.245555 0.638391L0.67259 0.215936C0.950849 -0.0589568 1.40062 -0.0564763 1.67541 0.221466L6.49251 5.09199L11.3684 0.269548C11.5027 0.13687 11.6811 0.0641893 11.8709 0.065236C12.0609 0.0662839 12.2385 0.140928 12.3714 0.275079L12.7936 0.702218C12.9264 0.836475 12.999 1.01487 12.9979 1.20477C12.9969 1.39467 12.9223 1.57236 12.7881 1.70504L6.98274 7.4469C6.84806 7.5799 6.66882 7.65236 6.47871 7.65089C6.28786 7.65026 6.10954 7.57582 5.97644 7.44136Z" fill="black"/>
</svg>
