<svg width="26" height="24" viewBox="0 0 26 24" fill="none" xmlns="http://www.w3.org/2000/svg">
<path d="M25.4321 22.9687H3.15691L8.49196 20.7201C8.54696 20.7201 8.60196 20.6653 8.60196 20.6104L24.1671 5.03492C24.3321 4.87039 24.3321 4.59617 24.1671 4.43164L19.9871 0.263549C19.9321 0.208705 19.8221 0.153862 19.7121 0.153862C19.6021 0.153862 19.4921 0.208705 19.4371 0.263549L3.87192 15.8939C3.81692 15.9487 3.81692 16.0036 3.76192 16.0036L0.736885 23.2429C0.736885 23.2977 0.736885 23.3526 0.681885 23.4074C0.681885 23.4623 0.681885 23.4623 0.681885 23.5171C0.681885 23.5171 0.681885 23.5171 0.681885 23.572C0.681885 23.6268 0.736885 23.6816 0.736885 23.6816C0.791886 23.7365 0.846886 23.7365 0.846886 23.7913C0.901887 23.7913 0.956887 23.8462 1.01189 23.8462H25.3221C25.5421 23.8462 25.7621 23.6816 25.7621 23.4074C25.8171 23.1332 25.6521 22.9687 25.4321 22.9687ZM8.32696 19.7878L6.78695 18.2522L19.4371 5.63819L20.9771 7.17381L8.32696 19.7878ZM19.7671 1.19588L23.3971 4.81554L21.5821 6.62537L17.9521 3.00571L19.7671 1.19588ZM17.347 3.55415L18.8871 5.08976L6.23694 17.7037L4.69692 16.1681L17.347 3.55415ZM4.31192 16.8811L7.66695 20.2265L4.86193 21.3782L3.10191 19.6781L4.31192 16.8811ZM2.77191 20.5007L3.98192 21.7073L1.8919 22.5848L2.77191 20.5007Z" fill="#0AC085"/>
</svg>
