<svg width="21" height="19" viewBox="0 0 21 19" fill="none" xmlns="http://www.w3.org/2000/svg">
<path d="M20.9076 1.2701C20.754 0.965538 20.4469 0.791504 20.1178 0.791504H1.68974C1.36066 0.791504 1.05353 0.987292 0.899962 1.2701C0.746395 1.57466 0.790271 1.92273 0.987715 2.18378L8.73189 11.8427V18.1297C8.73189 18.456 8.9074 18.7388 9.19259 18.8911C9.32422 18.9563 9.45585 18.9998 9.60942 18.9998C9.78492 18.9998 9.96043 18.9563 10.114 18.8476L12.5491 17.1725C12.9001 16.9114 13.0976 16.5198 13.0976 16.1065V11.8209L20.8198 2.18378C21.0173 1.92273 21.0611 1.57466 20.9076 1.2701ZM12.3078 11.4076C12.2639 11.4729 12.2201 11.5599 12.2201 11.6686V16.0848C12.2201 16.237 12.1542 16.3676 12.0446 16.4546L9.60942 18.1297V11.6686C9.60942 11.5164 9.5436 11.3858 9.43391 11.3206L4.47589 5.14236H12.4394C12.6808 5.14236 12.8782 4.94657 12.8782 4.70727C12.8782 4.46798 12.6808 4.27219 12.4394 4.27219H3.88355C3.86162 4.27219 3.81774 4.27219 3.7958 4.27219L1.68974 1.66168H20.1178L12.3078 11.4076Z" fill="white"/>
</svg>
