<svg width="41" height="41" viewBox="0 0 41 41" fill="none" xmlns="http://www.w3.org/2000/svg">
<g clip-path="url(#clip0)">
<path d="M37.3962 36.1149H13.2126C11.2251 36.1149 9.60913 34.4981 9.60913 32.5114C9.60913 30.5238 11.2251 28.9078 13.2126 28.9078H37.3962C39.383 28.9078 40.9997 30.5238 40.9997 32.5114C40.9997 34.4981 39.383 36.1149 37.3962 36.1149Z" fill="black"/>
<path d="M37.3962 24.1038H13.2126C11.2251 24.1038 9.60913 22.487 9.60913 20.5003C9.60913 18.5128 11.2251 16.8968 13.2126 16.8968H37.3962C39.383 16.8968 40.9997 18.5128 40.9997 20.5003C40.9997 22.487 39.383 24.1038 37.3962 24.1038Z" fill="black"/>
<path d="M37.3962 12.0912H13.2126C11.2251 12.0912 9.60913 10.4745 9.60913 8.48773C9.60913 6.50019 11.2251 4.88422 13.2126 4.88422H37.3962C39.383 4.88422 40.9997 6.50019 40.9997 8.48773C40.9997 10.4745 39.383 12.0912 37.3962 12.0912Z" fill="black"/>
<path d="M3.60278 36.1149C1.61524 36.1149 -0.000732422 34.4981 -0.000732422 32.5114C-0.000732422 30.5238 1.61524 28.9078 3.60278 28.9078C5.58952 28.9078 7.2063 30.5238 7.2063 32.5114C7.2063 34.4981 5.58952 36.1149 3.60278 36.1149Z" fill="black"/>
<path d="M3.60278 24.1038C1.61524 24.1038 -0.000732422 22.487 -0.000732422 20.5003C-0.000732422 18.5128 1.61524 16.8968 3.60278 16.8968C5.58952 16.8968 7.2063 18.5128 7.2063 20.5003C7.2063 22.487 5.58952 24.1038 3.60278 24.1038Z" fill="black"/>
<path d="M3.60278 12.0912C1.61524 12.0912 -0.000732422 10.4745 -0.000732422 8.48773C-0.000732422 6.50019 1.61524 4.88422 3.60278 4.88422C5.58952 4.88422 7.2063 6.50019 7.2063 8.48773C7.2063 10.4745 5.58952 12.0912 3.60278 12.0912Z" fill="black"/>
</g>
<defs>
<clipPath id="clip0">
<rect width="41" height="41" fill="white" transform="matrix(1 0 0 -1 0 41)"/>
</clipPath>
</defs>
</svg>
