<svg width="9" height="16" viewBox="0 0 9 16" fill="none" xmlns="http://www.w3.org/2000/svg">
<path d="M0.244365 7.37568L7.06168 0.255607C7.21936 0.0907956 7.42984 -4.11803e-07 7.65427 -3.52942e-07C7.87871 -2.9408e-07 8.08919 0.0907958 8.24687 0.255608L8.74891 0.779831C9.0756 1.12142 9.0756 1.6766 8.74891 2.01767L3.02425 7.99668L8.75526 13.9823C8.91294 14.1471 9 14.3668 9 14.6011C9 14.8357 8.91294 15.0554 8.75526 15.2203L8.25321 15.7444C8.09541 15.9092 7.88505 16 7.66062 16C7.43619 16 7.2257 15.9092 7.06803 15.7444L0.244365 8.61782C0.086315 8.45248 -0.000493298 8.23174 4.95e-06 7.99707C-0.000493175 7.7615 0.0863152 7.54088 0.244365 7.37568Z" fill="#DFE1DE"/>
</svg>
