<svg width="10" height="10" viewBox="0 0 10 10" fill="none" xmlns="http://www.w3.org/2000/svg">
<path d="M6.96674 5.93398C8.19114 4.23893 7.78164 1.89178 6.05268 0.691675C4.32372 -0.508428 1.92962 -0.107246 0.70551 1.58809C-0.518598 3.28315 -0.109392 5.63002 1.61986 6.83012C2.85391 7.68668 4.48547 7.75263 5.78709 6.99902L8.61526 9.7551C8.92063 10.0703 9.4287 10.0829 9.75016 9.78349C10.0716 9.48439 10.0845 8.98629 9.77941 8.67113C9.76976 8.6611 9.7604 8.65192 9.75016 8.64246L6.96674 5.93398ZM3.83379 6.19092C2.46752 6.19121 1.35983 5.1061 1.35895 3.76663C1.35866 2.42716 2.46548 1.34119 3.83203 1.34062C5.19654 1.34005 6.30365 2.42343 6.30628 3.76118C6.30862 5.10094 5.20239 6.18863 3.83554 6.19092C3.83496 6.19092 3.83466 6.19092 3.83379 6.19092Z" fill="#929292"/>
</svg>
