<svg width="22" height="22" viewBox="0 0 22 22" fill="none" xmlns="http://www.w3.org/2000/svg">
<path d="M18.8242 11.7442H17.1228C17.2962 12.219 17.391 12.7314 17.391 13.2655V19.6958C17.391 19.9184 17.3522 20.1322 17.2817 20.3309H20.0945C21.1452 20.3309 22 19.4761 22 18.4255V14.92C22 13.1689 20.5754 11.7442 18.8242 11.7442Z" fill="#DFE1DE"/>
<path d="M4.60905 13.2656C4.60905 12.7315 4.7038 12.2191 4.87722 11.7443H3.17583C1.42467 11.7443 0 13.169 0 14.9201V18.4256C0 19.4762 0.854779 20.3311 1.9055 20.3311H4.71832C4.64781 20.1322 4.60905 19.9185 4.60905 19.6959V13.2656Z" fill="#DFE1DE"/>
<path d="M12.9448 10.0897H9.05522C7.30407 10.0897 5.87939 11.5144 5.87939 13.2655V19.6958C5.87939 20.0466 6.16376 20.331 6.51456 20.331H15.4855C15.8363 20.331 16.1207 20.0466 16.1207 19.6958V13.2655C16.1207 11.5144 14.696 10.0897 12.9448 10.0897Z" fill="#DFE1DE"/>
<path d="M11 1.66891C8.894 1.66891 7.18066 3.38225 7.18066 5.48829C7.18066 6.91678 7.9691 8.16439 9.13347 8.8194C9.68575 9.13007 10.3225 9.30761 11 9.30761C11.6775 9.30761 12.3142 9.13007 12.8665 8.8194C14.0309 8.16439 14.8193 6.91674 14.8193 5.48829C14.8193 3.3823 13.106 1.66891 11 1.66891Z" fill="#DFE1DE"/>
<path d="M4.29336 5.22882C2.71834 5.22882 1.43701 6.51015 1.43701 8.08517C1.43701 9.6602 2.71834 10.9415 4.29336 10.9415C4.69289 10.9415 5.07333 10.8588 5.41893 10.71C6.01646 10.4528 6.50914 9.99737 6.814 9.42696C7.02799 9.02662 7.14972 8.56991 7.14972 8.08517C7.14972 6.51019 5.86839 5.22882 4.29336 5.22882Z" fill="#DFE1DE"/>
<path d="M17.7067 5.22882C16.1317 5.22882 14.8503 6.51015 14.8503 8.08517C14.8503 8.56995 14.9721 9.02666 15.1861 9.42696C15.4909 9.99742 15.9836 10.4528 16.5811 10.71C16.9267 10.8588 17.3072 10.9415 17.7067 10.9415C19.2817 10.9415 20.5631 9.6602 20.5631 8.08517C20.5631 6.51015 19.2817 5.22882 17.7067 5.22882Z" fill="#DFE1DE"/>
</svg>
