<svg width="15" height="12" viewBox="0 0 15 12" fill="none" xmlns="http://www.w3.org/2000/svg">
<path d="M10.1143 6.72438C10.1143 7.96411 9.10148 8.97262 7.85645 8.97262C6.61141 8.97262 5.59897 7.96411 5.59897 6.72438C5.59897 5.48466 6.61141 4.47615 7.85645 4.47615C9.10148 4.47615 10.1143 5.48504 10.1143 6.72438ZM14.8564 3.532V9.91754C14.8564 10.7688 14.1633 11.459 13.3084 11.459H2.40452C1.5496 11.459 0.856445 10.7688 0.856445 9.91754V3.532C0.856445 2.68073 1.5496 1.99053 2.40452 1.99053H4.30865V1.45718C4.30865 0.712269 4.91472 0.108398 5.66321 0.108398H10.0497C10.7982 0.108398 11.4042 0.712269 11.4042 1.45718V1.99015H13.3084C14.1633 1.99053 14.8564 2.68073 14.8564 3.532ZM11.2754 6.72438C11.2754 4.84726 9.74161 3.32005 7.85645 3.32005C5.97167 3.32005 4.43791 4.84726 4.43791 6.72438C4.43791 8.60151 5.97167 10.1287 7.85645 10.1287C9.74161 10.1287 11.2754 8.60151 11.2754 6.72438Z" fill="white"/>
</svg>
