<svg width="44" height="44" viewBox="0 0 44 44" fill="none" xmlns="http://www.w3.org/2000/svg">
<path d="M41.9745 20.307H23.6932V2.02572C23.6932 1.09083 22.9354 0.333008 22.0005 0.333008C21.0656 0.333008 20.3078 1.09083 20.3078 2.02572V20.307H2.02657C1.09169 20.307 0.333862 21.0648 0.333862 21.9997C0.333862 22.9346 1.09169 23.6924 2.02657 23.6924H20.3078V41.9736C20.3078 42.9085 21.0656 43.6663 22.0005 43.6663C22.9354 43.6663 23.6932 42.9085 23.6932 41.9736V23.6924H41.9745C42.9094 23.6924 43.6672 22.9346 43.6672 21.9997C43.6672 21.0648 42.9094 20.307 41.9745 20.307Z" fill="black"/>
<path d="M41.9745 20.307H23.6932V2.02572C23.6932 1.09083 22.9354 0.333008 22.0005 0.333008C21.0656 0.333008 20.3078 1.09083 20.3078 2.02572V20.307H2.02657C1.09169 20.307 0.333862 21.0648 0.333862 21.9997C0.333862 22.9346 1.09169 23.6924 2.02657 23.6924H20.3078V41.9736C20.3078 42.9085 21.0656 43.6663 22.0005 43.6663C22.9354 43.6663 23.6932 42.9085 23.6932 41.9736V23.6924H41.9745C42.9094 23.6924 43.6672 22.9346 43.6672 21.9997C43.6672 21.0648 42.9094 20.307 41.9745 20.307Z" stroke="black"/>
</svg>
