<svg width="27" height="24" viewBox="0 0 27 24" fill="none" xmlns="http://www.w3.org/2000/svg">
<path d="M18.2352 14.2416C21.3987 10.1734 20.3407 4.54025 15.8736 1.65999C11.4064 -1.22026 5.22079 -0.257423 2.05806 3.81141C-1.10467 7.87955 -0.0474063 13.512 4.42047 16.3923C7.6089 18.448 11.8244 18.6063 15.1874 16.7977L22.4945 23.4123C23.2835 24.1686 24.5962 24.1989 25.4268 23.4804C26.2573 22.7626 26.2906 21.5671 25.5023 20.8107C25.4774 20.7867 25.4532 20.7646 25.4268 20.7419L18.2352 14.2416ZM10.1406 14.8582C6.61058 14.8589 3.74863 12.2546 3.74636 9.03991C3.7456 5.82517 6.60529 3.21884 10.1361 3.21746C13.6615 3.21609 16.522 5.81623 16.5288 9.02683C16.5348 12.2423 13.6767 14.8527 10.1451 14.8582C10.1436 14.8582 10.1429 14.8582 10.1406 14.8582Z" fill="white"/>
</svg>
