<svg width="10" height="11" viewBox="0 0 10 11" fill="none" xmlns="http://www.w3.org/2000/svg">
<path d="M8.87508 5.3944L2.16457 10.0007C2.00937 10.1073 1.80032 10.1689 1.57602 10.1741C1.35172 10.1793 1.14005 10.1274 0.980082 10.0281L0.470757 9.71214C0.13933 9.50624 0.131313 9.15935 0.452882 8.93869L6.08786 5.07058L0.273758 1.46293C0.113795 1.36359 0.0236146 1.22832 0.0202316 1.08194C0.0168448 0.935393 0.100679 0.796103 0.255881 0.6894L0.750067 0.350333C0.905396 0.243708 1.11432 0.182118 1.33862 0.176934C1.56292 0.17175 1.7746 0.22362 1.93456 0.322958L8.85715 4.61827C9.01749 4.71792 9.10744 4.85385 9.11033 5.00049C9.11423 5.14767 9.03066 5.28752 8.87508 5.3944Z" fill="black"/>
</svg>
