<svg width="10" height="11" viewBox="0 0 10 11" fill="none" xmlns="http://www.w3.org/2000/svg">
<path d="M8.87496 5.3944L2.16445 10.0007C2.00925 10.1073 1.8002 10.1689 1.5759 10.1741C1.3516 10.1793 1.13992 10.1274 0.979959 10.0281L0.470635 9.71214C0.139208 9.50624 0.131191 9.15935 0.45276 8.93869L6.08774 5.07058L0.273636 1.46293C0.113672 1.36359 0.0234926 1.22832 0.0201095 1.08194C0.0167227 0.935393 0.100557 0.796102 0.255759 0.689399L0.749945 0.350332C0.905274 0.243708 1.1142 0.182118 1.3385 0.176934C1.5628 0.17175 1.77447 0.22362 1.93444 0.322957L8.85702 4.61827C9.01737 4.71792 9.10731 4.85385 9.1102 5.00049C9.11411 5.14767 9.03053 5.28752 8.87496 5.3944Z" fill="#DFE1DE"/>
</svg>
