<svg width="50" height="50" viewBox="0 0 50 50" fill="none" xmlns="http://www.w3.org/2000/svg">
<g clip-path="url(#clip0)">
<path d="M49.1465 39.2543L29.0475 5.92164C28.2557 4.6085 26.8112 3.79272 25.2778 3.79272C23.7443 3.79272 22.2999 4.6085 21.5079 5.92174L1.40904 39.2543C0.590679 40.6115 0.566466 42.312 1.34578 43.692C2.12528 45.0721 3.59394 45.9294 5.17878 45.9294H45.3768C46.9616 45.9294 48.4304 45.0721 49.2099 43.6919C49.9892 42.3118 49.965 40.6113 49.1465 39.2543ZM46.432 42.1233C46.2174 42.5031 45.8131 42.7392 45.3768 42.7392H5.17878C4.74247 42.7392 4.33813 42.5032 4.12366 42.1234C3.90909 41.7434 3.91579 41.2752 4.14098 40.9017L24.2401 7.56907C24.4581 7.2076 24.8557 6.98299 25.2779 6.98299C25.6999 6.98299 26.0976 7.2076 26.3156 7.56907L46.4145 40.9017C46.6399 41.2753 46.6466 41.7434 46.432 42.1233Z" fill="#C70505"/>
<path d="M25.2927 16.9183C24.0792 16.9183 23.1321 17.5695 23.1321 18.7239C23.1321 22.2459 23.5464 27.3071 23.5464 30.8293C23.5465 31.7468 24.3457 32.1315 25.2928 32.1315C26.0031 32.1315 27.0094 31.7468 27.0094 30.8293C27.0094 27.3072 27.4237 22.246 27.4237 18.7239C27.4237 17.5696 26.447 16.9183 25.2927 16.9183Z" fill="#C70505"/>
<path d="M25.322 34.1738C24.0198 34.1738 23.043 35.2097 23.043 36.4529C23.043 37.6664 24.0197 38.732 25.322 38.732C26.5356 38.732 27.5715 37.6664 27.5715 36.4529C27.5715 35.2097 26.5355 34.1738 25.322 34.1738Z" fill="#C70505"/>
</g>
<defs>
<clipPath id="clip0">
<rect width="49" height="49" fill="white" transform="translate(0.777832 0.361206)"/>
</clipPath>
</defs>
</svg>
